<?xml version="1.0" encoding="UTF-8" standalone="no"?>
<!DOCTYPE svg PUBLIC "-//W3C//DTD SVG 1.1//EN"
 "http://www.w3.org/Graphics/SVG/1.1/DTD/svg11.dtd">
<!-- Generated by graphviz version 2.38.0 (20140413.2041)
 -->
<!-- Title: G Pages: 1 -->
<svg width="707pt" height="383pt"
 viewBox="0.00 0.00 707.00 382.50" xmlns="http://www.w3.org/2000/svg" xmlns:xlink="http://www.w3.org/1999/xlink">
<g id="graph0" class="graph" transform="scale(1 1) rotate(0) translate(4 378.5)">
<title>G</title>
<polygon fill="white" stroke="none" points="-4,4 -4,-378.5 703,-378.5 703,4 -4,4"/>
<!-- emcmot.00.enable -->
<g id="node1" class="node"><title>emcmot.00.enable</title>
<polygon fill="lightgray" stroke="none" points="8,-253 8,-268 90,-268 90,-253 8,-253"/>
<polygon fill="none" stroke="black" points="8,-253 8,-268 90,-268 90,-253 8,-253"/>
<text text-anchor="start" x="11" y="-258.6" font-family="Times,serif" font-size="8.00">emcmot.00.enable</text>
<polygon fill="none" stroke="black" points="8,-232 8,-253 90,-253 90,-232 8,-232"/>
<text text-anchor="start" x="30" y="-238.8" font-family="Times,serif" font-size="14.00">False</text>
</g>
<!-- bb_gpio_p9 -->
<g id="node15" class="node"><title>bb_gpio_p9</title>
<polygon fill="#ffd75e" stroke="none" points="159,-277 159,-298 244,-298 244,-277 159,-277"/>
<polygon fill="none" stroke="black" points="159,-277 159,-298 244,-298 244,-277 159,-277"/>
<text text-anchor="start" x="162" y="-283.8" font-family="Times,serif" font-size="14.00">bb_gpio.p9</text>
<polygon fill="none" stroke="black" points="159,-256 159,-277 244,-277 244,-256 159,-256"/>
<text text-anchor="start" x="178.5" y="-262.8" font-family="Times,serif" font-size="14.00">out&#45;13</text>
</g>
<!-- emcmot.00.enable&#45;&gt;bb_gpio_p9 -->
<g id="edge2" class="edge"><title>emcmot.00.enable&#45;&gt;bb_gpio_p9:out_13</title>
<path fill="none" stroke="black" stroke-width="2" d="M98.1609,-260.224C113.569,-262.82 130.976,-265.078 147.699,-265.777"/>
<polygon fill="black" stroke="black" stroke-width="2" points="147.927,-269.283 158,-266 148.078,-262.284 147.927,-269.283"/>
</g>
<!-- hpg_stepgen -->
<g id="node16" class="node"><title>hpg_stepgen</title>
<polygon fill="#ffd75e" stroke="none" points="152,-193 152,-214 251,-214 251,-193 152,-193"/>
<polygon fill="none" stroke="black" points="152,-193 152,-214 251,-214 251,-193 152,-193"/>
<text text-anchor="start" x="157" y="-199.8" font-family="Times,serif" font-size="14.00">hpg.stepgen</text>
<polygon fill="none" stroke="black" points="152,-172 152,-193 251,-193 251,-172 152,-172"/>
<text text-anchor="start" x="177.5" y="-178.8" font-family="Times,serif" font-size="14.00">enable</text>
<polygon fill="none" stroke="black" points="152,-151 152,-172 251,-172 251,-151 152,-151"/>
<text text-anchor="start" x="155" y="-157.8" font-family="Times,serif" font-size="14.00">position&#45;cmd</text>
<polygon fill="none" stroke="black" points="152,-130 152,-151 251,-151 251,-130 152,-130"/>
<text text-anchor="start" x="163.5" y="-136.8" font-family="Times,serif" font-size="14.00">position&#45;fb</text>
<polygon fill="none" stroke="black" points="152,-109 152,-130 251,-130 251,-109 152,-109"/>
<text text-anchor="start" x="177.5" y="-115.8" font-family="Times,serif" font-size="14.00">enable</text>
<polygon fill="none" stroke="black" points="152,-88 152,-109 251,-109 251,-88 152,-88"/>
<text text-anchor="start" x="155" y="-94.8" font-family="Times,serif" font-size="14.00">position&#45;cmd</text>
<polygon fill="none" stroke="black" points="152,-67 152,-88 251,-88 251,-67 152,-67"/>
<text text-anchor="start" x="163.5" y="-73.8" font-family="Times,serif" font-size="14.00">position&#45;fb</text>
<polygon fill="none" stroke="black" points="152,-46 152,-67 251,-67 251,-46 152,-46"/>
<text text-anchor="start" x="177.5" y="-52.8" font-family="Times,serif" font-size="14.00">enable</text>
<polygon fill="none" stroke="black" points="152,-25 152,-46 251,-46 251,-25 152,-25"/>
<text text-anchor="start" x="155" y="-31.8" font-family="Times,serif" font-size="14.00">position&#45;cmd</text>
<polygon fill="none" stroke="black" points="152,-4 152,-25 251,-25 251,-4 152,-4"/>
<text text-anchor="start" x="163.5" y="-10.8" font-family="Times,serif" font-size="14.00">position&#45;fb</text>
</g>
<!-- emcmot.00.enable&#45;&gt;hpg_stepgen -->
<g id="edge3" class="edge"><title>emcmot.00.enable&#45;&gt;hpg_stepgen:enable</title>
<path fill="none" stroke="black" stroke-width="2" d="M68.8098,-227.69C85.5669,-210.179 111.89,-188.06 141.022,-183.747"/>
<polygon fill="black" stroke="black" stroke-width="2" points="141.289,-187.237 151,-183 140.766,-180.257 141.289,-187.237"/>
</g>
<!-- emcmot.00.pos&#45;cmd -->
<g id="node2" class="node"><title>emcmot.00.pos&#45;cmd</title>
<polygon fill="lightgray" stroke="none" points="603,-256 603,-271 691,-271 691,-256 603,-256"/>
<polygon fill="none" stroke="black" points="603,-256 603,-271 691,-271 691,-256 603,-256"/>
<text text-anchor="start" x="606" y="-261.6" font-family="Times,serif" font-size="8.00">emcmot.00.pos&#45;cmd</text>
<polygon fill="none" stroke="black" points="603,-235 603,-256 691,-256 691,-235 603,-235"/>
<text text-anchor="start" x="635.5" y="-241.8" font-family="Times,serif" font-size="14.00">0.0</text>
</g>
<!-- emcmot.00.pos&#45;cmd&#45;&gt;hpg_stepgen -->
<g id="edge5" class="edge"><title>emcmot.00.pos&#45;cmd&#45;&gt;hpg_stepgen:position_cmd</title>
<path fill="none" stroke="black" stroke-width="2" d="M594.716,-231.47C583.147,-227.367 570.795,-223.56 559,-221 530.036,-214.713 453.024,-223.172 426,-211 405.653,-201.836 410.226,-185.428 390,-176 384.052,-173.227 293.75,-165.025 262.315,-162.651"/>
<polygon fill="black" stroke="black" stroke-width="2" points="262.201,-159.137 252,-162 261.76,-166.123 262.201,-159.137"/>
</g>
<!-- motor.00.pos&#45;fb -->
<g id="node3" class="node"><title>motor.00.pos&#45;fb</title>
<polygon fill="lightgray" stroke="none" points="312,-198 312,-213 382,-213 382,-198 312,-198"/>
<polygon fill="none" stroke="black" points="312,-198 312,-213 382,-213 382,-198 312,-198"/>
<text text-anchor="start" x="315" y="-203.6" font-family="Times,serif" font-size="8.00">motor.00.pos&#45;fb</text>
<polygon fill="none" stroke="black" points="312,-177 312,-198 382,-198 382,-177 312,-177"/>
<text text-anchor="start" x="333" y="-183.8" font-family="Times,serif" font-size="14.00">&#45;0.0</text>
</g>
<!-- axis_0 -->
<g id="node14" class="node"><title>axis_0</title>
<polygon fill="#ffd75e" stroke="none" points="434.5,-288 434.5,-309 551.5,-309 551.5,-288 434.5,-288"/>
<polygon fill="none" stroke="black" points="434.5,-288 434.5,-309 551.5,-309 551.5,-288 434.5,-288"/>
<text text-anchor="start" x="471.5" y="-294.8" font-family="Times,serif" font-size="14.00">axis.0</text>
<polygon fill="none" stroke="black" points="434.5,-267 434.5,-288 551.5,-288 551.5,-267 434.5,-267"/>
<text text-anchor="start" x="437.5" y="-273.8" font-family="Times,serif" font-size="14.00">amp&#45;enable&#45;out</text>
<polygon fill="none" stroke="black" points="434.5,-246 434.5,-267 551.5,-267 551.5,-246 434.5,-246"/>
<text text-anchor="start" x="439" y="-252.8" font-family="Times,serif" font-size="14.00">motor&#45;pos&#45;cmd</text>
<polygon fill="none" stroke="black" points="434.5,-225 434.5,-246 551.5,-246 551.5,-225 434.5,-225"/>
<text text-anchor="start" x="447.5" y="-231.8" font-family="Times,serif" font-size="14.00">motor&#45;pos&#45;fb</text>
</g>
<!-- motor.00.pos&#45;fb&#45;&gt;axis_0 -->
<g id="edge16" class="edge"><title>motor.00.pos&#45;fb&#45;&gt;axis_0:motor_pos_fb</title>
<path fill="none" stroke="black" stroke-width="2" d="M378.496,-217.106C391.461,-224.767 407.3,-232.011 423.437,-234.275"/>
<polygon fill="black" stroke="black" stroke-width="2" points="423.274,-237.772 433.5,-235 423.777,-230.79 423.274,-237.772"/>
</g>
<!-- emcmot.01.enable -->
<g id="node4" class="node"><title>emcmot.01.enable</title>
<polygon fill="lightgray" stroke="none" points="606,-208 606,-223 688,-223 688,-208 606,-208"/>
<polygon fill="none" stroke="black" points="606,-208 606,-223 688,-223 688,-208 606,-208"/>
<text text-anchor="start" x="609" y="-213.6" font-family="Times,serif" font-size="8.00">emcmot.01.enable</text>
<polygon fill="none" stroke="black" points="606,-187 606,-208 688,-208 688,-187 606,-187"/>
<text text-anchor="start" x="628" y="-193.8" font-family="Times,serif" font-size="14.00">False</text>
</g>
<!-- emcmot.01.enable&#45;&gt;hpg_stepgen -->
<g id="edge7" class="edge"><title>emcmot.01.enable&#45;&gt;hpg_stepgen:enable</title>
<path fill="none" stroke="black" stroke-width="2" d="M597.75,-210.886C585.157,-212.176 571.587,-213.351 559,-214 502.409,-216.919 358.632,-229.049 304,-214 281.91,-207.915 279.245,-189.714 262.326,-184.444"/>
<polygon fill="black" stroke="black" stroke-width="2" points="262.388,-180.919 252,-183 261.419,-187.851 262.388,-180.919"/>
</g>
<!-- emcmot.01.pos&#45;cmd -->
<g id="node5" class="node"><title>emcmot.01.pos&#45;cmd</title>
<polygon fill="lightgray" stroke="none" points="603,-158 603,-173 691,-173 691,-158 603,-158"/>
<polygon fill="none" stroke="black" points="603,-158 603,-173 691,-173 691,-158 603,-158"/>
<text text-anchor="start" x="606" y="-163.6" font-family="Times,serif" font-size="8.00">emcmot.01.pos&#45;cmd</text>
<polygon fill="none" stroke="black" points="603,-137 603,-158 691,-158 691,-137 603,-137"/>
<text text-anchor="start" x="635.5" y="-143.8" font-family="Times,serif" font-size="14.00">0.0</text>
</g>
<!-- emcmot.01.pos&#45;cmd&#45;&gt;hpg_stepgen -->
<g id="edge9" class="edge"><title>emcmot.01.pos&#45;cmd&#45;&gt;hpg_stepgen:position_cmd</title>
<path fill="none" stroke="black" stroke-width="2" d="M597.203,-132.957C584.975,-128.426 571.712,-124.33 559,-122 531.131,-116.892 330.824,-112.876 304,-122 280.062,-130.142 280.464,-154.243 261.978,-160.502"/>
<polygon fill="black" stroke="black" stroke-width="2" points="261.369,-157.054 252,-162 262.409,-163.976 261.369,-157.054"/>
</g>
<!-- motor.01.pos&#45;fb -->
<g id="node6" class="node"><title>motor.01.pos&#45;fb</title>
<polygon fill="lightgray" stroke="none" points="312,-144 312,-159 382,-159 382,-144 312,-144"/>
<polygon fill="none" stroke="black" points="312,-144 312,-159 382,-159 382,-144 312,-144"/>
<text text-anchor="start" x="315" y="-149.6" font-family="Times,serif" font-size="8.00">motor.01.pos&#45;fb</text>
<polygon fill="none" stroke="black" points="312,-123 312,-144 382,-144 382,-123 312,-123"/>
<text text-anchor="start" x="335.5" y="-129.8" font-family="Times,serif" font-size="14.00">0.0</text>
</g>
<!-- axis_1 -->
<g id="node13" class="node"><title>axis_1</title>
<polygon fill="#ffd75e" stroke="none" points="434.5,-189 434.5,-210 551.5,-210 551.5,-189 434.5,-189"/>
<polygon fill="none" stroke="black" points="434.5,-189 434.5,-210 551.5,-210 551.5,-189 434.5,-189"/>
<text text-anchor="start" x="471.5" y="-195.8" font-family="Times,serif" font-size="14.00">axis.1</text>
<polygon fill="none" stroke="black" points="434.5,-168 434.5,-189 551.5,-189 551.5,-168 434.5,-168"/>
<text text-anchor="start" x="437.5" y="-174.8" font-family="Times,serif" font-size="14.00">amp&#45;enable&#45;out</text>
<polygon fill="none" stroke="black" points="434.5,-147 434.5,-168 551.5,-168 551.5,-147 434.5,-147"/>
<text text-anchor="start" x="439" y="-153.8" font-family="Times,serif" font-size="14.00">motor&#45;pos&#45;cmd</text>
<polygon fill="none" stroke="black" points="434.5,-126 434.5,-147 551.5,-147 551.5,-126 434.5,-126"/>
<text text-anchor="start" x="447.5" y="-132.8" font-family="Times,serif" font-size="14.00">motor&#45;pos&#45;fb</text>
</g>
<!-- motor.01.pos&#45;fb&#45;&gt;axis_1 -->
<g id="edge18" class="edge"><title>motor.01.pos&#45;fb&#45;&gt;axis_1:motor_pos_fb</title>
<path fill="none" stroke="black" stroke-width="2" d="M390.155,-137.555C400.723,-136.892 412.237,-136.333 423.393,-136.107"/>
<polygon fill="black" stroke="black" stroke-width="2" points="423.538,-139.606 433.5,-136 423.464,-132.606 423.538,-139.606"/>
</g>
<!-- emcmot.02.enable -->
<g id="node7" class="node"><title>emcmot.02.enable</title>
<polygon fill="lightgray" stroke="none" points="606,-112 606,-127 688,-127 688,-112 606,-112"/>
<polygon fill="none" stroke="black" points="606,-112 606,-127 688,-127 688,-112 606,-112"/>
<text text-anchor="start" x="609" y="-117.6" font-family="Times,serif" font-size="8.00">emcmot.02.enable</text>
<polygon fill="none" stroke="black" points="606,-91 606,-112 688,-112 688,-91 606,-91"/>
<text text-anchor="start" x="628" y="-97.8" font-family="Times,serif" font-size="14.00">False</text>
</g>
<!-- emcmot.02.enable&#45;&gt;hpg_stepgen -->
<g id="edge11" class="edge"><title>emcmot.02.enable&#45;&gt;hpg_stepgen:enable</title>
<path fill="none" stroke="black" stroke-width="2" d="M597.988,-112.391C533.549,-116.956 426.974,-124.563 426,-125 405.642,-134.139 410.156,-150.424 390,-160 355.244,-176.513 341.856,-163.097 304,-170 284.409,-173.572 277.881,-180.256 262.351,-182.354"/>
<polygon fill="black" stroke="black" stroke-width="2" points="261.762,-178.883 252,-183 262.199,-185.87 261.762,-178.883"/>
</g>
<!-- emcmot.02.pos&#45;cmd -->
<g id="node8" class="node"><title>emcmot.02.pos&#45;cmd</title>
<polygon fill="lightgray" stroke="none" points="603,-64 603,-79 691,-79 691,-64 603,-64"/>
<polygon fill="none" stroke="black" points="603,-64 603,-79 691,-79 691,-64 603,-64"/>
<text text-anchor="start" x="606" y="-69.6" font-family="Times,serif" font-size="8.00">emcmot.02.pos&#45;cmd</text>
<polygon fill="none" stroke="black" points="603,-43 603,-64 691,-64 691,-43 603,-43"/>
<text text-anchor="start" x="635.5" y="-49.8" font-family="Times,serif" font-size="14.00">0.0</text>
</g>
<!-- emcmot.02.pos&#45;cmd&#45;&gt;hpg_stepgen -->
<g id="edge13" class="edge"><title>emcmot.02.pos&#45;cmd&#45;&gt;hpg_stepgen:position_cmd</title>
<path fill="none" stroke="black" stroke-width="2" d="M602.204,-83.0487C599.757,-84.3672 597.342,-85.69 595,-87 578.635,-96.154 576.947,-103.569 559,-109 450.442,-141.853 409.946,-78.5073 304,-119 279.598,-128.326 281.007,-154.033 261.953,-160.506"/>
<polygon fill="black" stroke="black" stroke-width="2" points="261.369,-157.054 252,-162 262.409,-163.976 261.369,-157.054"/>
</g>
<!-- motor.02.pos&#45;fb -->
<g id="node9" class="node"><title>motor.02.pos&#45;fb</title>
<polygon fill="lightgray" stroke="none" points="312,-65 312,-80 382,-80 382,-65 312,-65"/>
<polygon fill="none" stroke="black" points="312,-65 312,-80 382,-80 382,-65 312,-65"/>
<text text-anchor="start" x="315" y="-70.6" font-family="Times,serif" font-size="8.00">motor.02.pos&#45;fb</text>
<polygon fill="none" stroke="black" points="312,-44 312,-65 382,-65 382,-44 312,-44"/>
<text text-anchor="start" x="333" y="-50.8" font-family="Times,serif" font-size="14.00">&#45;0.0</text>
</g>
<!-- axis_2 -->
<g id="node12" class="node"><title>axis_2</title>
<polygon fill="#ffd75e" stroke="none" points="434.5,-87 434.5,-108 551.5,-108 551.5,-87 434.5,-87"/>
<polygon fill="none" stroke="black" points="434.5,-87 434.5,-108 551.5,-108 551.5,-87 434.5,-87"/>
<text text-anchor="start" x="471.5" y="-93.8" font-family="Times,serif" font-size="14.00">axis.2</text>
<polygon fill="none" stroke="black" points="434.5,-66 434.5,-87 551.5,-87 551.5,-66 434.5,-66"/>
<text text-anchor="start" x="437.5" y="-72.8" font-family="Times,serif" font-size="14.00">amp&#45;enable&#45;out</text>
<polygon fill="none" stroke="black" points="434.5,-45 434.5,-66 551.5,-66 551.5,-45 434.5,-45"/>
<text text-anchor="start" x="439" y="-51.8" font-family="Times,serif" font-size="14.00">motor&#45;pos&#45;cmd</text>
<polygon fill="none" stroke="black" points="434.5,-24 434.5,-45 551.5,-45 551.5,-24 434.5,-24"/>
<text text-anchor="start" x="447.5" y="-30.8" font-family="Times,serif" font-size="14.00">motor&#45;pos&#45;fb</text>
</g>
<!-- motor.02.pos&#45;fb&#45;&gt;axis_2 -->
<g id="edge20" class="edge"><title>motor.02.pos&#45;fb&#45;&gt;axis_2:motor_pos_fb</title>
<path fill="none" stroke="black" stroke-width="2" d="M390.18,-42.4009C400.545,-38.7981 411.917,-35.7877 423.198,-34.5744"/>
<polygon fill="black" stroke="black" stroke-width="2" points="423.71,-38.0513 433.5,-34 423.321,-31.0622 423.71,-38.0513"/>
</g>
<!-- estop&#45;loop -->
<g id="node10" class="node"><title>estop&#45;loop</title>
<polygon fill="lightgray" stroke="none" points="25,-330 25,-345 74,-345 74,-330 25,-330"/>
<polygon fill="none" stroke="black" points="25,-330 25,-345 74,-345 74,-330 25,-330"/>
<text text-anchor="start" x="28" y="-335.6" font-family="Times,serif" font-size="8.00">estop&#45;loop</text>
<polygon fill="none" stroke="black" points="25,-309 25,-330 74,-330 74,-309 25,-309"/>
<text text-anchor="start" x="30.5" y="-315.8" font-family="Times,serif" font-size="14.00">False</text>
</g>
<!-- iocontrol_0 -->
<g id="node11" class="node"><title>iocontrol_0</title>
<polygon fill="#ffd75e" stroke="none" points="142,-349 142,-370 260,-370 260,-349 142,-349"/>
<polygon fill="none" stroke="black" points="142,-349 142,-370 260,-370 260,-349 142,-349"/>
<text text-anchor="start" x="162" y="-355.8" font-family="Times,serif" font-size="14.00">iocontrol.0</text>
<polygon fill="none" stroke="black" points="142,-328 142,-349 260,-349 260,-328 142,-328"/>
<text text-anchor="start" x="151" y="-334.8" font-family="Times,serif" font-size="14.00">emc&#45;enable&#45;in</text>
<polygon fill="none" stroke="black" points="142,-307 142,-328 260,-328 260,-307 142,-307"/>
<text text-anchor="start" x="145" y="-313.8" font-family="Times,serif" font-size="14.00">user&#45;enable&#45;out</text>
</g>
<!-- estop&#45;loop&#45;&gt;iocontrol_0 -->
<g id="edge14" class="edge"><title>estop&#45;loop&#45;&gt;iocontrol_0:emc_enable_in</title>
<path fill="none" stroke="black" stroke-width="2" d="M81.893,-332.758C96.3083,-334.962 113.851,-337.11 130.662,-337.784"/>
<polygon fill="black" stroke="black" stroke-width="2" points="130.929,-341.29 141,-338 131.075,-334.292 130.929,-341.29"/>
</g>
<!-- iocontrol_0&#45;&gt;estop&#45;loop -->
<g id="edge15" class="edge"><title>iocontrol_0:user_enable_out&#45;&gt;estop&#45;loop</title>
<path fill="none" stroke="black" stroke-width="2" d="M141,-317C121.292,-317 99.3256,-319.346 81.9127,-321.766"/>
</g>
<!-- axis_2&#45;&gt;emcmot.02.enable -->
<g id="edge10" class="edge"><title>axis_2:amp_enable_out&#45;&gt;emcmot.02.enable</title>
<path fill="none" stroke="black" stroke-width="2" d="M552.5,-77C568.799,-77 585.877,-81.4067 600.912,-86.9496"/>
</g>
<!-- axis_2&#45;&gt;emcmot.02.pos&#45;cmd -->
<g id="edge12" class="edge"><title>axis_2:motor_pos_cmd&#45;&gt;emcmot.02.pos&#45;cmd</title>
<path fill="none" stroke="black" stroke-width="2" d="M552.5,-55C566.163,-55 580.927,-55.646 594.598,-56.5141"/>
</g>
<!-- axis_1&#45;&gt;emcmot.01.enable -->
<g id="edge6" class="edge"><title>axis_1:amp_enable_out&#45;&gt;emcmot.01.enable</title>
<path fill="none" stroke="black" stroke-width="2" d="M552.5,-179C567.495,-179 583.365,-182.142 597.689,-186.242"/>
</g>
<!-- axis_1&#45;&gt;emcmot.01.pos&#45;cmd -->
<g id="edge8" class="edge"><title>axis_1:motor_pos_cmd&#45;&gt;emcmot.01.pos&#45;cmd</title>
<path fill="none" stroke="black" stroke-width="2" d="M552.5,-157C566.139,-157 580.894,-156.785 594.564,-156.495"/>
</g>
<!-- axis_0&#45;&gt;emcmot.00.enable -->
<g id="edge1" class="edge"><title>axis_0:amp_enable_out&#45;&gt;emcmot.00.enable</title>
<path fill="none" stroke="black" stroke-width="2" d="M433.5,-278C359.238,-278 342.022,-260.972 268,-255 209.7,-250.296 142.368,-249.449 98.1398,-249.516"/>
</g>
<!-- axis_0&#45;&gt;emcmot.00.pos&#45;cmd -->
<g id="edge4" class="edge"><title>axis_0:motor_pos_cmd&#45;&gt;emcmot.00.pos&#45;cmd</title>
<path fill="none" stroke="black" stroke-width="2" d="M552.5,-256C566.142,-256 580.899,-255.677 594.569,-255.243"/>
</g>
<!-- hpg_stepgen&#45;&gt;motor.00.pos&#45;fb -->
<g id="edge17" class="edge"><title>hpg_stepgen:position_fb&#45;&gt;motor.00.pos&#45;fb</title>
<path fill="none" stroke="black" stroke-width="2" d="M252,-141C255.376,-141 284.503,-157.967 309.451,-172.88"/>
</g>
<!-- hpg_stepgen&#45;&gt;motor.01.pos&#45;fb -->
<g id="edge19" class="edge"><title>hpg_stepgen:position_fb&#45;&gt;motor.01.pos&#45;fb</title>
<path fill="none" stroke="black" stroke-width="2" d="M252,-141C268.972,-141 287.668,-141 303.886,-141"/>
</g>
<!-- hpg_stepgen&#45;&gt;motor.02.pos&#45;fb -->
<g id="edge21" class="edge"><title>hpg_stepgen:position_fb&#45;&gt;motor.02.pos&#45;fb</title>
<path fill="none" stroke="black" stroke-width="2" d="M252,-141C269.8,-141 304.379,-107.381 326.27,-84.0059"/>
</g>
</g>
</svg>
